<svg xmlns="http://www.w3.org/2000/svg" xmlns:xlink="http://www.w3.org/1999/xlink" width="96" zoomAndPan="magnify" viewBox="0 0 72 40.499999" height="54" preserveAspectRatio="xMidYMid meet" version="1.0"><defs><g/><clipPath id="745b5c035d"><path d="M 0.4375 0 L 71.558594 0 L 71.558594 40.007812 L 0.4375 40.007812 Z M 0.4375 0 " clip-rule="nonzero"/></clipPath><clipPath id="1344f091c3"><path d="M 0.4375 11 L 20 11 L 20 29 L 0.4375 29 Z M 0.4375 11 " clip-rule="nonzero"/></clipPath><clipPath id="fc156fff89"><path d="M 2.660156 18.832031 L 64.417969 18.832031 L 64.417969 24.027344 L 2.660156 24.027344 Z M 2.660156 18.832031 " clip-rule="nonzero"/></clipPath><clipPath id="87ead0293d"><path d="M 60 8.003906 L 68 8.003906 L 68 18 L 60 18 Z M 60 8.003906 " clip-rule="nonzero"/></clipPath><clipPath id="d98dffe91b"><path d="M 64 11 L 71 11 L 71 19.855469 L 64 19.855469 Z M 64 11 " clip-rule="nonzero"/></clipPath><clipPath id="b3b6f1f466"><path d="M 59 8.003906 L 68 8.003906 L 68 19.855469 L 59 19.855469 Z M 59 8.003906 " clip-rule="nonzero"/></clipPath></defs><g clip-path="url(#745b5c035d)"><path fill="#ffffff" d="M 0.4375 0 L 71.5625 0 L 71.5625 47.414062 L 0.4375 47.414062 Z M 0.4375 0 " fill-opacity="1" fill-rule="nonzero"/><path fill="#ffffff" d="M 0.4375 0 L 71.5625 0 L 71.5625 40.007812 L 0.4375 40.007812 Z M 0.4375 0 " fill-opacity="1" fill-rule="nonzero"/><path fill="#000000" d="M 0.4375 0 L 71.5625 0 L 71.5625 40.007812 L 0.4375 40.007812 Z M 0.4375 0 " fill-opacity="1" fill-rule="nonzero"/></g><g clip-path="url(#1344f091c3)"><g fill="#ffffff" fill-opacity="1"><g transform="translate(0.87389, 28.375346)"><g><path d="M 18.859375 -0.328125 C 18.929688 -0.328125 18.96875 -0.269531 18.96875 -0.15625 C 18.96875 -0.0507812 18.929688 0 18.859375 0 C 18.515625 0 17.972656 -0.015625 17.234375 -0.046875 C 16.515625 -0.0859375 15.988281 -0.109375 15.65625 -0.109375 C 15.238281 -0.109375 14.726562 -0.0859375 14.125 -0.046875 C 13.519531 -0.015625 13.066406 0 12.765625 0 C 12.691406 0 12.65625 -0.0507812 12.65625 -0.15625 C 12.65625 -0.269531 12.691406 -0.328125 12.765625 -0.328125 C 13.367188 -0.328125 13.800781 -0.382812 14.0625 -0.5 C 14.332031 -0.613281 14.46875 -0.820312 14.46875 -1.125 C 14.46875 -1.425781 14.335938 -1.84375 14.078125 -2.375 L 11.078125 -8.59375 L 6.15625 -8.59375 L 3.953125 -3.53125 C 3.703125 -2.9375 3.578125 -2.445312 3.578125 -2.0625 C 3.578125 -0.90625 4.441406 -0.328125 6.171875 -0.328125 C 6.265625 -0.328125 6.3125 -0.269531 6.3125 -0.15625 C 6.3125 -0.0507812 6.265625 0 6.171875 0 C 5.859375 0 5.394531 -0.015625 4.78125 -0.046875 C 4.101562 -0.0859375 3.515625 -0.109375 3.015625 -0.109375 C 2.554688 -0.109375 2.003906 -0.0859375 1.359375 -0.046875 C 0.796875 -0.015625 0.332031 0 -0.03125 0 C -0.101562 0 -0.140625 -0.0507812 -0.140625 -0.15625 C -0.140625 -0.269531 -0.101562 -0.328125 -0.03125 -0.328125 C 0.46875 -0.328125 0.890625 -0.421875 1.234375 -0.609375 C 1.585938 -0.804688 1.925781 -1.144531 2.25 -1.625 C 2.570312 -2.113281 2.9375 -2.828125 3.34375 -3.765625 L 9.046875 -16.90625 C 9.054688 -16.957031 9.113281 -16.988281 9.21875 -17 C 9.332031 -17.007812 9.398438 -16.976562 9.421875 -16.90625 L 15.859375 -3.671875 C 16.460938 -2.367188 16.976562 -1.484375 17.40625 -1.015625 C 17.84375 -0.554688 18.328125 -0.328125 18.859375 -0.328125 Z M 6.390625 -9.203125 L 10.78125 -9.203125 L 8.484375 -14.015625 Z M 6.390625 -9.203125 "/></g></g></g></g><g fill="#ffffff" fill-opacity="1"><g transform="translate(19.763126, 28.375346)"><g><path d="M 4.125 -13.71875 C 4.125 -13.039062 4.289062 -12.445312 4.625 -11.9375 C 4.96875 -11.4375 5.378906 -11 5.859375 -10.625 C 6.335938 -10.257812 7.003906 -9.820312 7.859375 -9.3125 C 8.753906 -8.757812 9.460938 -8.28125 9.984375 -7.875 C 10.515625 -7.476562 10.96875 -6.984375 11.34375 -6.390625 C 11.71875 -5.804688 11.90625 -5.113281 11.90625 -4.3125 C 11.90625 -3.4375 11.675781 -2.644531 11.21875 -1.9375 C 10.769531 -1.226562 10.117188 -0.671875 9.265625 -0.265625 C 8.421875 0.128906 7.4375 0.328125 6.3125 0.328125 C 5.601562 0.328125 4.898438 0.238281 4.203125 0.0625 C 3.503906 -0.101562 2.894531 -0.347656 2.375 -0.671875 C 2.289062 -0.722656 2.226562 -0.785156 2.1875 -0.859375 C 2.15625 -0.929688 2.140625 -1.035156 2.140625 -1.171875 L 1.875 -5 C 1.851562 -5.070312 1.890625 -5.113281 1.984375 -5.125 C 2.085938 -5.144531 2.148438 -5.125 2.171875 -5.0625 C 2.597656 -3.695312 3.191406 -2.539062 3.953125 -1.59375 C 4.722656 -0.65625 5.722656 -0.1875 6.953125 -0.1875 C 7.796875 -0.1875 8.492188 -0.410156 9.046875 -0.859375 C 9.609375 -1.316406 9.890625 -2.066406 9.890625 -3.109375 C 9.890625 -3.890625 9.710938 -4.570312 9.359375 -5.15625 C 9.003906 -5.75 8.570312 -6.242188 8.0625 -6.640625 C 7.550781 -7.046875 6.867188 -7.507812 6.015625 -8.03125 C 5.179688 -8.5625 4.519531 -9.019531 4.03125 -9.40625 C 3.539062 -9.789062 3.125 -10.257812 2.78125 -10.8125 C 2.445312 -11.375 2.28125 -12.03125 2.28125 -12.78125 C 2.28125 -13.695312 2.523438 -14.472656 3.015625 -15.109375 C 3.503906 -15.753906 4.144531 -16.234375 4.9375 -16.546875 C 5.726562 -16.859375 6.5625 -17.015625 7.4375 -17.015625 C 8.632812 -17.015625 9.710938 -16.804688 10.671875 -16.390625 C 10.941406 -16.285156 11.078125 -16.128906 11.078125 -15.921875 L 11.203125 -12.578125 C 11.203125 -12.503906 11.15625 -12.457031 11.0625 -12.4375 C 10.976562 -12.414062 10.925781 -12.441406 10.90625 -12.515625 C 10.71875 -13.484375 10.300781 -14.398438 9.65625 -15.265625 C 9.007812 -16.128906 8.097656 -16.5625 6.921875 -16.5625 C 6.035156 -16.5625 5.347656 -16.289062 4.859375 -15.75 C 4.367188 -15.21875 4.125 -14.539062 4.125 -13.71875 Z M 4.125 -13.71875 "/></g></g></g><g fill="#ffffff" fill-opacity="1"><g transform="translate(33.114015, 28.375346)"><g><path d="M 5.34375 -2.28125 C 5.34375 -1.707031 5.414062 -1.289062 5.5625 -1.03125 C 5.707031 -0.769531 5.976562 -0.585938 6.375 -0.484375 C 6.78125 -0.378906 7.425781 -0.328125 8.3125 -0.328125 C 8.375 -0.328125 8.40625 -0.269531 8.40625 -0.15625 C 8.40625 -0.0507812 8.375 0 8.3125 0 C 7.582031 0 7.015625 -0.0078125 6.609375 -0.03125 L 4.28125 -0.046875 L 2.4375 -0.03125 C 2.09375 -0.0078125 1.628906 0 1.046875 0 C 1.003906 0 0.984375 -0.0507812 0.984375 -0.15625 C 0.984375 -0.269531 1.003906 -0.328125 1.046875 -0.328125 C 1.679688 -0.328125 2.144531 -0.367188 2.4375 -0.453125 C 2.738281 -0.546875 2.941406 -0.71875 3.046875 -0.96875 C 3.148438 -1.226562 3.203125 -1.628906 3.203125 -2.171875 L 3.203125 -14.546875 C 3.203125 -15.085938 3.148438 -15.484375 3.046875 -15.734375 C 2.941406 -15.984375 2.738281 -16.15625 2.4375 -16.25 C 2.144531 -16.34375 1.679688 -16.390625 1.046875 -16.390625 C 1.003906 -16.390625 0.984375 -16.441406 0.984375 -16.546875 C 0.984375 -16.660156 1.003906 -16.71875 1.046875 -16.71875 L 2.4375 -16.6875 C 3.1875 -16.65625 3.789062 -16.640625 4.25 -16.640625 C 4.675781 -16.640625 5.1875 -16.664062 5.78125 -16.71875 C 5.988281 -16.71875 6.320312 -16.726562 6.78125 -16.75 C 7.238281 -16.78125 7.632812 -16.796875 7.96875 -16.796875 C 9.644531 -16.796875 10.988281 -16.425781 12 -15.6875 C 13.019531 -14.945312 13.53125 -13.828125 13.53125 -12.328125 C 13.53125 -11.171875 13.238281 -10.191406 12.65625 -9.390625 C 12.082031 -8.585938 11.34375 -7.988281 10.4375 -7.59375 C 9.539062 -7.207031 8.613281 -7.015625 7.65625 -7.015625 C 7.132812 -7.015625 6.703125 -7.054688 6.359375 -7.140625 C 6.304688 -7.140625 6.28125 -7.1875 6.28125 -7.28125 C 6.28125 -7.332031 6.289062 -7.382812 6.3125 -7.4375 C 6.34375 -7.488281 6.378906 -7.503906 6.421875 -7.484375 C 6.703125 -7.421875 7.023438 -7.390625 7.390625 -7.390625 C 8.441406 -7.390625 9.332031 -7.769531 10.0625 -8.53125 C 10.789062 -9.300781 11.15625 -10.40625 11.15625 -11.84375 C 11.15625 -13.257812 10.796875 -14.363281 10.078125 -15.15625 C 9.367188 -15.945312 8.425781 -16.34375 7.25 -16.34375 C 6.71875 -16.34375 6.320312 -16.300781 6.0625 -16.21875 C 5.800781 -16.144531 5.613281 -15.976562 5.5 -15.71875 C 5.394531 -15.457031 5.34375 -15.050781 5.34375 -14.5 Z M 5.34375 -2.28125 "/></g></g></g><g fill="#ffffff" fill-opacity="1"><g transform="translate(47.722405, 28.375346)"><g><path d="M 18.859375 -0.328125 C 18.929688 -0.328125 18.96875 -0.269531 18.96875 -0.15625 C 18.96875 -0.0507812 18.929688 0 18.859375 0 C 18.515625 0 17.972656 -0.015625 17.234375 -0.046875 C 16.515625 -0.0859375 15.988281 -0.109375 15.65625 -0.109375 C 15.238281 -0.109375 14.726562 -0.0859375 14.125 -0.046875 C 13.519531 -0.015625 13.066406 0 12.765625 0 C 12.691406 0 12.65625 -0.0507812 12.65625 -0.15625 C 12.65625 -0.269531 12.691406 -0.328125 12.765625 -0.328125 C 13.367188 -0.328125 13.800781 -0.382812 14.0625 -0.5 C 14.332031 -0.613281 14.46875 -0.820312 14.46875 -1.125 C 14.46875 -1.425781 14.335938 -1.84375 14.078125 -2.375 L 11.078125 -8.59375 L 6.15625 -8.59375 L 3.953125 -3.53125 C 3.703125 -2.9375 3.578125 -2.445312 3.578125 -2.0625 C 3.578125 -0.90625 4.441406 -0.328125 6.171875 -0.328125 C 6.265625 -0.328125 6.3125 -0.269531 6.3125 -0.15625 C 6.3125 -0.0507812 6.265625 0 6.171875 0 C 5.859375 0 5.394531 -0.015625 4.78125 -0.046875 C 4.101562 -0.0859375 3.515625 -0.109375 3.015625 -0.109375 C 2.554688 -0.109375 2.003906 -0.0859375 1.359375 -0.046875 C 0.796875 -0.015625 0.332031 0 -0.03125 0 C -0.101562 0 -0.140625 -0.0507812 -0.140625 -0.15625 C -0.140625 -0.269531 -0.101562 -0.328125 -0.03125 -0.328125 C 0.46875 -0.328125 0.890625 -0.421875 1.234375 -0.609375 C 1.585938 -0.804688 1.925781 -1.144531 2.25 -1.625 C 2.570312 -2.113281 2.9375 -2.828125 3.34375 -3.765625 L 9.046875 -16.90625 C 9.054688 -16.957031 9.113281 -16.988281 9.21875 -17 C 9.332031 -17.007812 9.398438 -16.976562 9.421875 -16.90625 L 15.859375 -3.671875 C 16.460938 -2.367188 16.976562 -1.484375 17.40625 -1.015625 C 17.84375 -0.554688 18.328125 -0.328125 18.859375 -0.328125 Z M 6.390625 -9.203125 L 10.78125 -9.203125 L 8.484375 -14.015625 Z M 6.390625 -9.203125 "/></g></g></g><g fill="#ffffff" fill-opacity="1"><g transform="translate(66.606848, 28.375346)"><g/></g></g><g clip-path="url(#fc156fff89)"><path fill="#000000" d="M 2.660156 18.832031 L 64.417969 18.832031 L 64.417969 24.027344 L 2.660156 24.027344 L 2.660156 18.832031 " fill-opacity="1" fill-rule="nonzero"/></g><g clip-path="url(#87ead0293d)"><path fill="#38b6ff" d="M 64.117188 13.601562 C 61.113281 11.382812 60.648438 9.394531 60.882812 8.003906 C 60.390625 9.402344 60.304688 11.914062 64.238281 14.417969 C 65.828125 15.425781 66.695312 16.484375 67.148438 17.207031 C 66.90625 16.582031 66.164062 15.109375 64.117188 13.601562 " fill-opacity="1" fill-rule="nonzero"/></g><g clip-path="url(#d98dffe91b)"><path fill="#38b6ff" d="M 66.371094 13.722656 C 65.757812 13.792969 64.988281 13.464844 64.757812 13.074219 C 65.433594 13.402344 66.296875 12.464844 67.488281 12.742188 C 67.488281 12.742188 67.035156 12.488281 66.195312 12.59375 C 65.570312 12.128906 65.277344 11.363281 65.277344 11.363281 C 65.96875 11.835938 67.003906 12.011719 67.613281 11.972656 C 68.628906 11.90625 69.429688 12.496094 69.695312 13.03125 C 70.03125 13.710938 69.734375 13.679688 69.601562 13.617188 C 68.234375 12.949219 68.402344 13.789062 69.34375 13.722656 C 71.035156 13.601562 70.777344 15.210938 70.777344 15.210938 C 70.117188 13.820312 68.160156 15.035156 67.875 16.292969 C 67.707031 17.03125 68.132812 17.378906 68.121094 18.328125 C 68.109375 19.234375 67.707031 19.855469 67.707031 19.855469 C 68.222656 18.074219 67.125 15.257812 64.320312 13.472656 C 65.5625 14.046875 66.371094 13.722656 66.371094 13.722656 " fill-opacity="1" fill-rule="nonzero"/></g><path fill="#38b6ff" d="M 60.867188 14.460938 C 61.585938 15.167969 62.550781 15.789062 63.738281 16.300781 C 65.007812 16.847656 65.859375 17.507812 66.386719 18.027344 C 64.984375 17.015625 63.300781 16.574219 62.71875 16.363281 C 61.15625 15.796875 59.8125 15.117188 59.667969 12.734375 C 59.933594 13.359375 60.335938 13.9375 60.867188 14.460938 " fill-opacity="1" fill-rule="nonzero"/><g clip-path="url(#b3b6f1f466)"><path fill="#38b6ff" d="M 67.621094 19.105469 C 67.621094 19.105469 66.777344 17.25 63.863281 15.992188 C 57.699219 13.335938 60.039062 8.824219 60.039062 8.824219 C 60.25 12.203125 62.730469 13.679688 64.84375 15.300781 C 67.441406 17.289062 67.621094 19.105469 67.621094 19.105469 " fill-opacity="1" fill-rule="nonzero"/></g></svg>